<svg xmlns="http://www.w3.org/2000/svg" viewBox="0 0 193.48 395.95"><defs><style>.cls-1{fill:#f3a35e;}</style></defs><g id="Capa_2" data-name="Capa 2"><g id="Capa_2-2" data-name="Capa 2"><path class="cls-1" d="M193.23,179a10.67,10.67,0,0,0-.81-2l-81.61-173A5.24,5.24,0,0,0,109.28,2a7.1,7.1,0,0,0-2.71-1.2,27.61,27.61,0,0,0-4.14-.63Q100,0,96.76,0c-2.05,0-3.88.07-5.5.21a27.61,27.61,0,0,0-4.14.63A8,8,0,0,0,84.32,2a4.92,4.92,0,0,0-1.62,1.9L1.09,177a10.5,10.5,0,0,0-.79,1.93,2.71,2.71,0,0,0-.3,1.25V391a3.15,3.15,0,0,0,.58,1.85,3.84,3.84,0,0,0,1.91,1.35,19.17,19.17,0,0,0,3.65.84,39.65,39.65,0,0,0,5.56.34,39.22,39.22,0,0,0,5.65-.34,19.22,19.22,0,0,0,3.55-.84,3.92,3.92,0,0,0,1.92-1.35,3.21,3.21,0,0,0,.57-1.85V241.58H86v151a2.22,2.22,0,0,0,.53,1.43,3.71,3.71,0,0,0,1.78,1,19.17,19.17,0,0,0,3.36.64,50.84,50.84,0,0,0,10.27,0,19.5,19.5,0,0,0,3.37-.64,3.73,3.73,0,0,0,1.77-1,2.22,2.22,0,0,0,.53-1.43v-151h62.53V391.1a3.23,3.23,0,0,0,.57,1.85,3.93,3.93,0,0,0,1.92,1.34,17.63,17.63,0,0,0,3.64.84,38.38,38.38,0,0,0,5.56.34,38,38,0,0,0,5.66-.34,17.72,17.72,0,0,0,3.55-.84A3.89,3.89,0,0,0,192.9,393a3.17,3.17,0,0,0,.58-1.85V180.21A3.22,3.22,0,0,0,193.23,179ZM95.49,19.26h.18l45,97.82H51.54ZM23.39,227.45V180.08a4.91,4.91,0,0,0,.22-.46l21.44-48.2H147.38l22.34,48.49c.12.21.24.4.37.59v46.95Z"/></g></g></svg>