<svg xmlns="http://www.w3.org/2000/svg" xmlns:xlink="http://www.w3.org/1999/xlink" viewBox="0 0 117 135.35"><defs><style>.cls-1{fill:url(#Degradado_sin_nombre_12);}.cls-2{fill:url(#Degradado_sin_nombre_12-2);}.cls-3{fill:#d85558;}</style><linearGradient id="Degradado_sin_nombre_12" y1="83.74" x2="117" y2="83.74" gradientUnits="userSpaceOnUse"><stop offset="0" stop-color="#f0b36d"/><stop offset="1" stop-color="#fff29d"/></linearGradient><linearGradient id="Degradado_sin_nombre_12-2" x1="43.59" y1="14.91" x2="73.41" y2="14.91" xlink:href="#Degradado_sin_nombre_12"/></defs><g id="Capa_2" data-name="Capa 2"><g id="Ejemplos"><path class="cls-1" d="M39,45.88v84.88s2.29,4.59,6.88,4.59,6.88-4.59,6.88-4.59v-39H64.24v39s2.29,4.59,6.88,4.59S78,130.76,78,130.76V45.88h34.41S117,43.59,117,39s-4.59-6.88-4.59-6.88H4.59S0,34.41,0,39s4.59,6.88,4.59,6.88Z"/><circle class="cls-2" cx="58.5" cy="14.91" r="14.91"/><circle class="cls-3" cx="10.43" cy="39.32" r="3.43"/><circle class="cls-3" cx="24.14" cy="39.32" r="3.43"/><circle class="cls-3" cx="40.13" cy="39.32" r="3.43"/><circle class="cls-3" cx="58.28" cy="39.32" r="3.43"/><circle class="cls-3" cx="76.68" cy="39.32" r="3.43"/><circle class="cls-3" cx="92.68" cy="39.32" r="3.43"/><circle class="cls-3" cx="108.67" cy="39.32" r="3.43"/><circle class="cls-3" cx="58.41" cy="20.98" r="3.43"/><circle class="cls-3" cx="58.28" cy="62.1" r="3.43"/><circle class="cls-3" cx="58.28" cy="82.67" r="3.43"/><circle class="cls-3" cx="71.99" cy="91.8" r="3.43"/><circle class="cls-3" cx="44.55" cy="91.8" r="3.43"/><circle class="cls-3" cx="71.99" cy="110.08" r="3.43"/><circle class="cls-3" cx="44.55" cy="110.08" r="3.43"/><circle class="cls-3" cx="71.99" cy="126.08" r="3.43"/><circle class="cls-3" cx="44.55" cy="126.08" r="3.43"/><rect class="cls-3" x="27.44" y="52.31" width="61.69" height="1.3" transform="translate(111.25 -5.32) rotate(90)"/><rect class="cls-3" x="7" y="38.67" width="105.1" height="1.3"/><rect class="cls-3" x="51.43" y="108.41" width="41.13" height="1.06" transform="translate(180.93 36.95) rotate(90)"/><rect class="cls-3" x="25.13" y="109.55" width="38.84" height="1.06" transform="translate(154.63 65.54) rotate(90)"/><rect class="cls-3" x="60.21" y="87.06" width="12.51" height="1.06" transform="matrix(0.83, 0.56, -0.56, 0.83, 60.87, -22.22)"/><rect class="cls-3" x="40.97" y="86.98" width="19.76" height="1.06" transform="translate(144.43 126.08) rotate(142.57)"/></g></g></svg>